<?xml version="1.0" encoding="utf-8"?>
<!-- Generator: Adobe Illustrator 27.0.0, SVG Export Plug-In . SVG Version: 6.00 Build 0)  -->
<svg version="1.0" id="Слой_1" xmlns="http://www.w3.org/2000/svg" xmlns:xlink="http://www.w3.org/1999/xlink" x="0px" y="0px"
	 viewBox="0 0 841.89 595.28" style="enable-background:new 0 0 841.89 595.28;" xml:space="preserve">
<style type="text/css">
	.st0{fill:#CEC4E6;}
	.st1{fill:#D0C6E7;}
	.st2{fill:#D0C5E7;}
	.st3{fill:#CFC4E6;}
	.st4{fill:#D1C6E7;}
	.st5{fill:#D2C8E8;}
</style>
<g>
	<path class="st0" d="M173.1,147.47c-2.2,0.01-4.41,0.09-6.61-0.01c-1.21-0.05-1.44,0.39-1.43,1.49c0.06,4.49-0.01,8.99,0.05,13.48
		c0.01,1.04-0.29,1.37-1.33,1.33c-1.95-0.08-3.91-0.06-5.86-0.01c-0.82,0.02-1.07-0.26-1.07-1.07c0.02-10.11,0.02-20.22,0-30.33
		c0-0.9,0.31-1.13,1.15-1.11c2.29,0.04,4.58,0.01,6.86,0.01c0,0-0.01-0.01-0.01-0.01c0.01,2.4,0.04,4.8,0.01,7.19
		c-0.01,0.8,0.23,1.09,1.05,1.07c2.4-0.04,4.8-0.01,7.19-0.01c0,0-0.01-0.01-0.01-0.01c0,2.67,0,5.34,0,8.01
		C173.09,147.48,173.1,147.47,173.1,147.47z"/>
	<path class="st0" d="M189.33,131.24c2.29,0,4.58,0.04,6.86-0.01c0.83-0.01,1.17,0.19,1.17,1.1c-0.03,10.19-0.03,20.38,0,30.57
		c0,0.82-0.26,1.08-1.07,1.06c-1.95-0.05-3.91-0.06-5.86,0c-0.91,0.03-1.11-0.33-1.1-1.16c0.03-4.66-0.02-9.32,0.04-13.97
		c0.02-1.14-0.34-1.4-1.41-1.37c-2.28,0.07-4.57,0.01-6.86,0c0,0,0.01,0.01,0.01,0.01c0-2.67,0-5.34,0-8.01l-0.01,0.01
		c2.4,0,4.8-0.03,7.2,0.01c0.82,0.01,1.07-0.25,1.06-1.06c-0.04-2.4-0.01-4.8,0-7.2C189.34,131.23,189.33,131.24,189.33,131.24z"/>
	<path class="st1" d="M213.31,177.15c0,3.18,0.01,6.08-0.01,8.98c0,0.51,0.24,1.21-0.39,1.45c-0.69,0.27-1.48,0.24-2.2,0
		c-0.42-0.14-0.38-0.6-0.38-0.97c0-4.74,0-9.49,0.01-14.23c0-0.27-0.14-0.64,0.21-0.78c0.32-0.12,0.53,0.2,0.73,0.37
		c1.14,0.97,2.25,1.96,3.36,2.97c2.71,2.45,5.42,4.9,8.13,7.35c0.17,0.16,0.34,0.44,0.62,0.27c0.26-0.15,0.16-0.45,0.16-0.68
		c0.01-2.79,0.02-5.58-0.01-8.36c-0.01-0.86,0.19-1.33,1.18-1.3c0.9,0.03,1.58,0.16,1.58,1.26c-0.01,4.74,0,9.49-0.01,14.23
		c0,0.19-0.02,0.47-0.14,0.57c-0.26,0.21-0.44-0.07-0.62-0.23c-2.23-1.98-4.47-3.97-6.7-5.95
		C217.08,180.52,215.32,178.95,213.31,177.15z"/>
	<path class="st2" d="M167.16,187.6c-1.94,0.36-3.49,0.1-4.62-1.76c-0.86-1.4-2.09-2.57-3.15-3.85c-0.16-0.19-0.27-0.5-0.54-0.42
		c-0.37,0.11-0.24,0.48-0.24,0.75c-0.01,1.37,0.01,2.75-0.01,4.12c-0.01,1.23-0.26,1.36-1.94,1.26c-1.06-0.06-1.1-0.7-0.92-1.48
		c0.23-1.03,0.1-2.07,0.11-3.11c0.02-3.2,0.03-6.41-0.01-9.61c-0.01-0.97,0.3-1.35,1.29-1.31c1.57,0.07,3.15-0.01,4.72,0.26
		c2.01,0.35,3.81,1.93,4,3.6c0.26,2.28-0.6,3.76-2.84,4.69c-0.81,0.34-0.9,0.6-0.29,1.28c1.28,1.41,2.47,2.91,3.69,4.37
		C166.7,186.75,167.11,187,167.16,187.6z M158.59,176.93c0,2.71,0.73,3.16,3.25,2c0.11-0.05,0.23-0.1,0.32-0.18
		c0.47-0.41,0.92-0.79,0.96-1.51c0.1-1.8-0.88-2.69-3.15-2.77c-1.38-0.05-1.38-0.05-1.38,2.21
		C158.59,176.76,158.59,176.85,158.59,176.93z"/>
	<path class="st2" d="M200.58,171.38c0.95,1.77,1.83,3.36,2.67,4.96c1.84,3.49,3.65,6.99,5.49,10.48c0.32,0.61,0.29,0.86-0.5,0.89
		c-2.1,0.09-2.21,0.16-3.06-1.87c-0.63-1.49-1.5-2.09-3.12-1.92c-1.48,0.15-2.99,0.06-4.49,0.02c-0.72-0.02-1.17,0.21-1.46,0.88
		c-0.29,0.69-0.67,1.34-1,2.01c-0.19,0.38-0.42,0.81-0.86,0.83c-0.77,0.03-1.74,0.39-2.26-0.17c-0.43-0.46,0.36-1.08,0.64-1.6
		c2.37-4.47,4.78-8.93,7.19-13.38C200.01,172.18,200.25,171.88,200.58,171.38z M200.56,176.7c-1.11,1.41-1.59,2.93-2.42,4.26
		c-0.33,0.52-0.11,0.8,0.55,0.77c1.11-0.04,2.23-0.02,3.35-0.01c0.67,0.01,0.95-0.2,0.6-0.88
		C201.97,179.52,201.31,178.19,200.56,176.7z"/>
	<path class="st2" d="M168.62,180.03c0-2.16,0.01-4.33-0.01-6.49c-0.01-0.92,0.31-1.36,1.32-1.33c2.54,0.05,5.08,0.04,7.61,0
		c0.83-0.01,1.27,0.27,1.27,1.12c0,0.83-0.39,1.17-1.25,1.15c-1.58-0.04-3.16,0.02-4.74-0.02c-0.89-0.03-1.35,0.26-1.25,1.21
		c0.02,0.21,0,0.42,0,0.62c0,2.05-0.01,1.95,2.01,1.77c1.3-0.11,2.62,0.09,3.94-0.05c0.69-0.07,1.07,0.41,1.03,1.11
		c-0.05,0.71-0.26,1.32-1.16,1.32c-1.58,0-3.16,0.03-4.74-0.01c-0.8-0.02-1.14,0.21-1.09,1.05c0.06,1,0.05,2,0,2.99
		c-0.04,0.78,0.27,1.01,1.02,1c1.71-0.04,3.41-0.01,5.12-0.02c0.59,0,1.13,0.07,1.1,0.83c-0.03,0.69-0.15,1.39-1.06,1.4
		c-2.75,0.02-5.49,0-8.24,0.01c-0.84,0-0.9-0.55-0.89-1.18C168.62,184.36,168.62,182.19,168.62,180.03z"/>
	<path class="st1" d="M143.86,179.88c0-2.16,0.02-4.33-0.01-6.49c-0.01-0.86,0.3-1.19,1.17-1.18c2.58,0.03,5.16,0.03,7.74,0
		c0.81-0.01,1.11,0.31,1.11,1.11c-0.01,0.77-0.26,1.16-1.08,1.15c-1.66-0.03-3.33,0.02-4.99-0.02c-0.85-0.02-1.2,0.28-1.18,1.16
		c0.05,2.96-0.27,2.57,2.48,2.59c1.12,0.01,2.25,0,3.37,0c0.6,0,1.18-0.07,1.16,0.85c-0.02,0.83-0.25,1.39-1.18,1.4
		c-1.58,0.01-3.16,0.04-4.74-0.01c-0.79-0.02-1.08,0.21-1.1,1.05c-0.09,3.98-0.11,3.98,3.85,3.98c0.83,0,1.66,0.01,2.5,0
		c0.72-0.01,0.92,0.39,0.91,1.03c-0.01,0.63-0.05,1.2-0.89,1.2c-2.75,0-5.49,0-8.24,0c-0.85,0-0.87-0.58-0.87-1.2
		C143.86,184.3,143.86,182.09,143.86,179.88z"/>
	<path class="st2" d="M187.94,182.85c1.51-3.23,2.9-6.2,4.3-9.15c0.68-1.44,1.59-1.83,3.1-1.47c0.36,0.09,0.52,0.23,0.4,0.59
		c-0.05,0.16-0.13,0.31-0.2,0.46c-2.43,4.96-4.86,9.92-7.3,14.87c-0.08,0.17-0.14,0.4-0.5,0.44c-0.78-1.59-1.59-3.21-2.36-4.84
		c-1.63-3.41-3.24-6.83-4.87-10.24c-0.59-1.24-0.56-1.18,0.82-1.31c1.22-0.12,1.87,0.29,2.36,1.43
		C184.99,176.62,186.41,179.57,187.94,182.85z"/>
	<path class="st2" d="M133.88,184.2c0.84-3.19-1.45-5.19-2.9-7.49c-0.79-1.26-1.64-2.5-2.5-3.71c-0.44-0.62-0.19-0.64,0.41-0.79
		c2.35-0.62,3.06,1.22,4.09,2.59c0.37,0.5,0.69,1.03,1.04,1.55c1.32,1.99,1.32,1.99,2.62,0.07c0.58-0.86,1.15-1.73,1.69-2.61
		c0.85-1.38,1.87-1.83,3.45-1.57c0.81,0.13,0.45,0.56,0.25,0.86c-1.2,1.83-2.34,3.71-3.68,5.44c-1.47,1.9-1.93,3.98-1.67,6.3
		c0.05,0.41,0.14,0.82,0.15,1.23c0.03,1.63-0.02,1.63-1.66,1.67c-0.96,0.02-1.39-0.28-1.31-1.28
		C133.92,185.7,133.88,184.95,133.88,184.2z"/>
	<path class="st1" d="M158.41,193.11c3.08-2.34,5.73-2.36,8.57-0.07c0.46,0.37,0.66,0.25,1.02-0.07c2.22-2.03,4.78-1.9,7.35-0.92
		c1.36,0.52,2.15,1.75,2.21,3.21c0.1,2.27,0.03,4.55,0.04,6.82c0,0.44-0.01,0.86-0.61,0.87c-0.65,0.01-0.88-0.35-0.88-0.94
		c0-1.91-0.04-3.83,0.01-5.74c0.05-2.06-1.22-3.69-3.86-3.78c-2.29-0.08-4.16,1.69-4.18,3.88c-0.01,1.79-0.01,3.58,0,5.37
		c0,0.61,0.01,1.24-0.85,1.22c-0.84-0.02-0.93-0.69-0.84-1.25c0.29-1.91,0.16-3.79,0-5.7c-0.2-2.27-1.93-3.78-4.2-3.46
		c-2.59,0.38-3.85,1.83-3.85,4.47c0,1.54,0,3.08,0,4.62c0,0.63,0.08,1.35-0.88,1.3c-0.89-0.04-0.6-0.76-0.6-1.23
		c-0.02-2.87-0.03-5.74,0-8.62c0.01-0.49-0.37-1.27,0.59-1.37C158.42,191.62,158.29,192.41,158.41,193.11z"/>
	<path class="st3" d="M164.85,131.24c0-2.67,0-5.34,0-8.01l-0.01,0.01c2.4,0,4.8,0.02,7.2-0.03c0.82-0.02,1.08,0.26,1.06,1.07
		c-0.04,2.32-0.01,4.63-0.01,6.95l0.01-0.01c-2.75,0-5.51,0-8.26,0L164.85,131.24z"/>
	<path class="st0" d="M181.1,131.24c0-2.32,0.03-4.63-0.01-6.95c-0.01-0.8,0.23-1.09,1.06-1.07c2.4,0.05,4.8,0.02,7.2,0.03
		l-0.01-0.01c0,2.67,0,5.34,0,8.01c0,0,0.01-0.01,0.01-0.01c-2.75,0-5.51,0-8.26,0L181.1,131.24z"/>
	<path class="st3" d="M173.09,131.24c2.67,0,5.34,0,8.01,0c0,0-0.01-0.01-0.01-0.01c0,2.75,0,5.51,0,8.26c0,0,0.01-0.01,0.01-0.01
		c-2.67,0-5.34,0-8.01,0c0,0,0.01,0.01,0.01,0.01c0-2.75,0-5.51,0-8.26L173.09,131.24z"/>
	<path class="st3" d="M181.09,147.47c0.01,2.37-0.01,4.73,0.03,7.1c0.02,0.83-0.18,1.2-1.1,1.17c-1.95-0.06-3.9-0.06-5.85,0
		c-0.92,0.03-1.11-0.35-1.09-1.17c0.04-2.37,0.02-4.73,0.02-7.1c0,0-0.01,0.01-0.01,0.01c2.67,0,5.34,0,8.01,0L181.09,147.47z"/>
	<path class="st0" d="M164.85,123.24c-2.29,0-4.58-0.03-6.86,0.02c-0.83,0.02-1.2-0.18-1.17-1.1c0.06-1.79,0.05-3.58,0-5.36
		c-0.02-0.83,0.27-1.08,1.08-1.06c1.95,0.05,3.91,0.06,5.86,0c0.91-0.03,1.12,0.33,1.1,1.16c-0.05,2.12-0.03,4.24-0.03,6.36
		C164.84,123.25,164.85,123.24,164.85,123.24z"/>
	<path class="st0" d="M189.34,123.25c0-2.12,0.02-4.24-0.03-6.36c-0.02-0.83,0.19-1.19,1.1-1.16c1.99,0.06,3.99,0.04,5.99,0.01
		c0.69-0.01,0.96,0.22,0.95,0.93c-0.03,1.87-0.04,3.74,0,5.61c0.02,0.8-0.32,0.98-1.04,0.97c-2.33-0.03-4.66-0.01-6.99-0.01
		C189.33,123.23,189.34,123.25,189.34,123.25z"/>
	<path class="st4" d="M189.23,201.54c-2.68,1.84-5.38,2.18-8.25,0.92c-1.22-0.54-1.99-1.44-2.07-2.72
		c-0.08-1.18,0.47-2.13,1.55-2.78c1.1-0.67,2.26-1.02,3.54-0.99c1.45,0.03,2.9-0.13,4.35,0.22c0.97,0.24,1.34-0.09,1.04-1.19
		c-0.36-1.31-1.23-2-2.41-2.25c-1.76-0.36-3.53-0.28-5.25,0.35c-0.43,0.15-1.09,0.68-1.32-0.2c-0.2-0.78,0.5-0.8,1.01-0.94
		c2.46-0.66,4.9-0.88,7.31,0.2c1.47,0.66,2.07,1.88,2.11,3.39c0.05,2.08,0.03,4.16,0.01,6.25c0,0.44,0.24,1.08-0.56,1.15
		c-0.68,0.06-0.81-0.43-0.91-0.95C189.34,201.86,189.29,201.75,189.23,201.54z M185.36,196.97c-1.09-0.08-2.09-0.05-3.04,0.29
		c-0.99,0.35-1.8,1.01-1.93,2.09c-0.1,0.86,0.36,1.6,1.14,2.07c2.02,1.22,5.41,0.87,7.09-0.76c0.66-0.64,0.97-1.43,0.95-2.35
		c-0.01-0.64-0.33-1.06-0.97-1.08C187.49,197.19,186.41,196.76,185.36,196.97z"/>
	<path class="st5" d="M196.08,197.17c0-1.58,0.01-3.16,0-4.74c0-0.54,0.02-0.99,0.77-0.98c0.76,0.01,0.73,0.5,0.73,1.02
		c0,3.12,0,6.23,0,9.35c0,0.58-0.03,1.12-0.81,1.13c-0.9,0.01-0.67-0.67-0.68-1.16C196.07,200.24,196.08,198.7,196.08,197.17z"/>
	<path class="st3" d="M192.83,197.18c0-1.62,0-3.24,0-4.86c0-0.44,0.01-0.83,0.61-0.87c0.59-0.04,0.74,0.38,0.76,0.78
		c0.03,0.65-0.09,1.31-0.09,1.96c-0.01,2.57,0,5.15-0.01,7.72c0,0.43,0.14,0.98-0.57,1.02c-0.79,0.04-0.69-0.54-0.7-1.03
		C192.82,200.34,192.83,198.76,192.83,197.18z"/>
</g>
</svg>
